<svg xmlns="http://www.w3.org/2000/svg" width="64" height="64" viewBox="0 0 64 64"><rect width="100%" height="100%" fill="#808080"/><path fill="#FFFFFF" d="M21.555 27.78h-5.46v3.64h4.61v1.82h-4.61v5.01h-2.29V25.96h7.75zm5.4 1.61q.97 0 1.76.32.8.31 1.36.89.57.58.87 1.41.31.83.31 1.86 0 1.04-.31 1.87-.3.84-.87 1.42-.56.59-1.36.9-.79.32-1.76.32-.98 0-1.78-.32-.8-.31-1.36-.9-.57-.58-.88-1.42-.31-.83-.31-1.87 0-1.03.31-1.86t.88-1.41q.56-.58 1.36-.89.8-.32 1.78-.32m0 7.37q1.08 0 1.61-.73.52-.73.52-2.14t-.52-2.15q-.53-.74-1.61-.74-1.11 0-1.64.74-.53.75-.53 2.15t.53 2.14q.53.73 1.64.73m9.76-7.37q.97 0 1.77.32.79.31 1.36.89.56.58.87 1.41.3.83.3 1.86 0 1.04-.3 1.87-.31.84-.87 1.42-.57.59-1.36.9-.8.32-1.77.32t-1.77-.32q-.8-.31-1.37-.9-.56-.58-.87-1.42-.31-.83-.31-1.87 0-1.03.31-1.86t.87-1.41q.57-.58 1.37-.89.8-.32 1.77-.32m0 7.37q1.09 0 1.61-.73.53-.73.53-2.14t-.53-2.15q-.52-.74-1.61-.74-1.1 0-1.63.74-.53.75-.53 2.15t.53 2.14q.53.73 1.63.73m11.38-1.09v-3.91q-.35-.44-.77-.62-.42-.17-.91-.17-.47 0-.86.17-.38.18-.65.54t-.42.92q-.14.56-.14 1.32t.12 1.29.35.87q.23.33.56.48.34.15.74.15.66 0 1.12-.27t.86-.77m0-10.05h2.1v12.63h-1.28q-.42 0-.53-.38l-.17-.84q-.53.6-1.22.97-.68.38-1.59.38-.71 0-1.31-.3-.59-.3-1.02-.86-.43-.57-.67-1.4-.23-.83-.23-1.9 0-.97.26-1.81.27-.83.76-1.44t1.18-.96q.69-.34 1.55-.34.73 0 1.25.23t.92.62z"/></svg>